<svg width="30" height="25" viewBox="0 0 30 25" fill="none" xmlns="http://www.w3.org/2000/svg">
<path d="M1.07143 25L28.9286 25C29.5212 25 30 24.4922 30 23.8636L30 1.13636C30 0.507812 29.5212 0 28.9286 0L1.07143 0C0.478796 0 0 0.507813 0 1.13636L0 23.8636C0 24.4922 0.478796 25 1.07143 25ZM27.5893 22.4432L2.41072 22.4432V18.1818L27.5893 18.1818V22.4432ZM2.41072 2.55682L27.5893 2.55682L27.5893 15.0568L2.41072 15.0568L2.41072 2.55682ZM10.346 4.82955H4.82143C4.67411 4.82955 4.55357 4.95739 4.55357 5.11364V7.67045C4.55357 7.8267 4.67411 7.95455 4.82143 7.95455H10.346C10.4933 7.95455 10.6138 7.8267 10.6138 7.67045V5.11364C10.6138 4.95739 10.4933 4.82955 10.346 4.82955Z" fill="#FCA82B"/>
</svg>
