<svg width="85" height="70" viewBox="0 0 85 70" fill="none" xmlns="http://www.w3.org/2000/svg">
<path d="M64.9032 3.92387C62.0576 1.41061 58.2039 0 54.1864 0C50.1689 0 46.3154 1.41067 43.4696 3.92387L42.5062 4.67127L41.6629 3.92387C37.8058 0.662619 32.2992 -0.563519 27.1606 0.695396C22.0219 1.95422 18.007 5.51247 16.5874 10.0669C15.167 14.6206 16.5496 19.5018 20.2295 22.92L21.0728 23.6674C21.0728 23.6674 36.4857 34.9796 42.5064 42.2363C48.6473 34.9798 63.94 23.6669 63.94 23.6669L64.7833 22.9195V22.9202C67.661 20.4249 69.293 17.0133 69.3156 13.4444C69.3382 9.87635 67.7499 6.44835 64.9033 3.92404L64.9032 3.92387Z" fill="#033F33"/>
<path d="M15.5572 51.7131C16.6214 52.6592 17.2195 53.9411 17.2186 55.2773V64.9995H36.4852V43.7298C36.4827 42.3973 35.8847 41.12 34.8238 40.1766L14.2327 24.7552C14.0697 24.6071 13.9168 24.45 13.7749 24.2855L13.5103 24.0398C12.3663 23.0259 10.6982 22.6299 9.135 23.0014C7.57188 23.3721 6.35065 24.4545 5.93157 25.8399C5.51328 27.2253 5.96013 28.7036 7.10412 29.7177L20.759 41.8413C21.1286 42.1681 21.1286 42.6988 20.759 43.0256C20.3903 43.3532 19.7914 43.3532 19.4227 43.0256L5.75596 30.9236C4.36755 29.6849 3.69895 27.9503 3.94002 26.2182C4.18192 24.4851 5.30828 22.9472 6.994 22.0456C8.68061 21.1434 10.741 20.9781 12.5829 21.5967V21.2022V5.31098C12.4922 3.56456 11.3885 1.98417 9.66503 1.13327C7.94233 0.282401 5.84492 0.282401 4.1215 1.13327C2.39879 1.98413 1.29436 3.56458 1.20448 5.31098L0 33.506C0 34.8423 0.597185 36.1233 1.6614 37.0703L15.5572 51.7131Z" fill="#033F33"/>
<path d="M67.7939 65.0003V55.2781C67.7931 53.9419 68.3911 52.66 69.4553 51.7138L83.3386 37.0503C84.4036 36.1042 85.0008 34.8223 85.0008 33.4861L83.8325 5.31195C83.7418 3.56553 82.6381 1.98514 80.9146 1.13424C79.1919 0.283378 77.0945 0.283378 75.3711 1.13424C73.6484 1.98511 72.5446 3.56555 72.4541 5.31195V21.2134V21.608C73.1848 21.3608 73.9601 21.2343 74.7413 21.2343C76.4388 21.238 78.064 21.8388 79.2617 22.9033C80.4595 23.9685 81.1323 25.4112 81.1314 26.915C81.1306 28.4188 80.4561 29.8607 79.2567 30.9244L65.6145 43.0057C65.2449 43.3325 64.6469 43.3325 64.2773 43.0057C63.9085 42.6782 63.9085 42.1481 64.2773 41.8206L77.9203 29.7298C79.0652 28.7151 79.512 27.2367 79.0929 25.8513C78.6738 24.4659 77.4533 23.3843 75.8901 23.0127C74.327 22.6412 72.6589 23.0373 71.5139 24.0519L71.2493 24.2976C71.1082 24.4621 70.9554 24.6184 70.7916 24.7665L50.177 40.188C49.1229 41.1304 48.5299 42.4034 48.5273 43.7307V64.989L67.7939 64.9897V65.0003Z" fill="#033F33"/>
</svg>
