<svg width="50" height="82" viewBox="0 0 100 82" fill="none" xmlns="http://www.w3.org/2000/svg">
<path d="M10.5608 41C10.5608 21.119 29.2415 5 52.2853 5C75.3291 5 94.0098 21.119 94.0098 41C94.0098 60.881 75.3291 77 52.2853 77C41.7946 77 32.1979 73.6565 24.8663 68.135C18.8103 68.5715 12.1702 70.0115 7.18708 71.6045C6.0784 71.96 4.83858 71.2715 5.02933 70.376C7.23476 60.224 10.6204 54.1895 12.3848 51.566C11.1671 48.1194 10.5539 44.5671 10.5608 41Z" fill="#212121"/>
<path fill-rule="evenodd" clip-rule="evenodd" d="M10.0675 70.7527C14.5746 69.5193 19.9156 68.4918 24.8663 68.135C32.1979 73.6565 41.7946 77 52.2853 77C75.3291 77 94.0098 60.881 94.0098 41C94.0098 21.119 75.3291 5 52.2853 5C29.2415 5 10.5608 21.119 10.5608 41C10.5539 44.5671 11.1671 48.1194 12.3848 51.566C10.8406 53.862 8.05469 58.7707 5.90488 66.7656C5.90388 66.7693 5.90291 66.773 5.90192 66.7766C5.86266 66.9227 5.82361 67.0698 5.78479 67.218C5.78415 67.2204 5.78352 67.2228 5.78288 67.2253C5.52026 68.2279 5.26788 69.2779 5.02933 70.376C4.83859 71.2715 6.07841 71.96 7.18708 71.6045C7.65603 71.4546 8.13965 71.306 8.63608 71.1595C8.64612 71.1566 8.65616 71.1536 8.66621 71.1507C9.10477 71.0214 9.55328 70.8938 10.0105 70.7684C10.0295 70.7631 10.0485 70.7579 10.0675 70.7527ZM8.70959 76.3671C12.8857 75.032 18.3346 73.8092 23.4544 73.2784C31.4379 78.7735 41.4722 82 52.2853 82C77.3727 82 99.0098 64.3094 99.0098 41C99.0098 17.6906 77.3727 0 52.2853 0C27.1996 0 5.5638 17.6882 5.56081 40.9952C5.56081 40.9936 5.56081 40.992 5.56081 40.9903M8.70959 76.3671C6.8026 76.9772 4.77549 76.7233 3.16391 75.814C1.60309 74.9334 -0.571655 72.671 0.13903 69.3344L0.141144 69.3245L0.143295 69.3146C2.05428 60.518 4.82799 54.497 6.92485 50.8799C6.01543 47.646 5.55481 44.3315 5.56081 40.9952" fill="#FCA82B"/>
<g clip-path="url(#clip0_702_6882)">
<path d="M51.3615 60.875C46.1767 60.875 41.2043 58.8161 37.5381 55.1514C33.8719 51.4866 31.8123 46.5161 31.8123 41.3333C31.8123 36.1506 33.8719 31.1801 37.5381 27.5153C41.2043 23.8505 46.1767 21.7917 51.3615 21.7917C56.5463 21.7917 61.5187 23.8505 65.1849 27.5153C68.8511 31.1801 70.9107 36.1506 70.9107 41.3333C70.9107 46.5161 68.8511 51.4866 65.1849 55.1514C61.5187 58.8161 56.5463 60.875 51.3615 60.875ZM51.3615 63.6667C57.287 63.6667 62.9697 61.3137 67.1597 57.1254C71.3496 52.9371 73.7035 47.2565 73.7035 41.3333C73.7035 35.4102 71.3496 29.7296 67.1597 25.5413C62.9697 21.353 57.287 19 51.3615 19C45.436 19 39.7533 21.353 35.5633 25.5413C31.3734 29.7296 29.0195 35.4102 29.0195 41.3333C29.0195 47.2565 31.3734 52.9371 35.5633 57.1254C39.7533 61.3137 45.436 63.6667 51.3615 63.6667Z" fill="#FCA82B"/>
<path d="M43.6959 35.1523C43.6921 35.2424 43.7067 35.3324 43.739 35.4167C43.7713 35.501 43.8204 35.5777 43.8835 35.6423C43.9465 35.7069 44.0221 35.7579 44.1056 35.7922C44.1891 35.8265 44.2787 35.8434 44.369 35.8418H46.673C47.0584 35.8418 47.3656 35.5263 47.4158 35.1439C47.6672 33.3126 48.9239 31.9781 51.1637 31.9781C53.0795 31.9781 54.8334 32.9357 54.8334 35.2388C54.8334 37.0115 53.7889 37.8267 52.1384 39.0662C50.2589 40.4313 48.7703 42.0253 48.8765 44.6132L48.8848 45.219C48.8878 45.4022 48.9626 45.5768 49.0932 45.7053C49.2239 45.8338 49.3998 45.9058 49.583 45.9058H51.8479C52.0331 45.9058 52.2107 45.8322 52.3416 45.7013C52.4726 45.5705 52.5461 45.3929 52.5461 45.2078V44.9147C52.5461 42.9103 53.3085 42.3268 55.3668 40.7663C57.0676 39.4738 58.841 38.0388 58.841 35.0266C58.841 30.8084 55.2774 28.7705 51.376 28.7705C47.8376 28.7705 43.9612 30.4176 43.6959 35.1523ZM48.0442 51.2406C48.0442 52.7286 49.2311 53.8285 50.8649 53.8285C52.5657 53.8285 53.7358 52.7286 53.7358 51.2406C53.7358 49.6996 52.5629 48.6165 50.8621 48.6165C49.2311 48.6165 48.0442 49.6996 48.0442 51.2406Z" fill="#FCA82B"/>
</g>
<defs>
<clipPath id="clip0_702_6882">
<rect width="44.684" height="44.6667" fill="white" transform="translate(29.0195 19)"/>
</clipPath>
</defs>
</svg>
