<svg width="623" height="128" viewBox="0 0 623 128" fill="none" xmlns="http://www.w3.org/2000/svg">
<path d="M25.8009 65.1672C25.8026 48.2879 33.9324 36.7617 46.7265 29.7662C59.1333 22.9824 75.7673 20.5 93.3639 20.5C110.932 20.5 126.456 22.97 137.721 29.8935C149.43 37.0906 155.926 48.718 155.926 65.1726C155.926 81.2399 150.402 95.7689 139.928 106.296C129.437 116.841 114.35 123 95.9264 123C88.0285 123 78.981 122.824 70.4492 121.551C62.8197 120.413 55.134 118.336 48.9447 114.353C45.5679 115.122 43.104 115.801 41.1618 116.365C40.6632 116.51 40.1747 116.655 39.6964 116.797C38.0755 117.279 36.5716 117.726 35.1886 118.01C31.0136 118.868 27.4607 118.391 20.0194 116.903L10.9197 115.083L17.4447 108.484C19.8859 106.016 23.4052 100.611 26.3288 94.7639C27.686 92.0494 28.1312 90.5914 28.34 89.0722C28.5485 87.5538 28.545 85.9032 28.5385 82.8968C28.5378 82.5676 28.537 82.2222 28.5365 81.8589C26.7153 76.4237 25.7908 70.8142 25.8009 65.1672ZM25.8009 65.1672C25.8009 65.169 25.8009 65.1708 25.8009 65.1726H30.8009L25.8009 65.1632C25.8009 65.1645 25.8009 65.1659 25.8009 65.1672Z" fill="#FCA82B" stroke="#033F33" stroke-width="10"/>
<path d="M70.0227 78.4545C68.6212 78.4545 67.4186 77.9527 66.4148 76.9489C65.411 75.9451 64.9091 74.7424 64.9091 73.3409C64.9091 71.9394 65.411 70.7367 66.4148 69.733C67.4186 68.7292 68.6212 68.2273 70.0227 68.2273C71.4242 68.2273 72.6269 68.7292 73.6307 69.733C74.6345 70.7367 75.1364 71.9394 75.1364 73.3409C75.1364 74.2689 74.8996 75.1212 74.4261 75.8977C73.9716 76.6742 73.3561 77.2992 72.5795 77.7727C71.822 78.2273 70.9697 78.4545 70.0227 78.4545ZM92.054 78.4545C90.6525 78.4545 89.4498 77.9527 88.446 76.9489C87.4422 75.9451 86.9403 74.7424 86.9403 73.3409C86.9403 71.9394 87.4422 70.7367 88.446 69.733C89.4498 68.7292 90.6525 68.2273 92.054 68.2273C93.4555 68.2273 94.6581 68.7292 95.6619 69.733C96.6657 70.7367 97.1676 71.9394 97.1676 73.3409C97.1676 74.2689 96.9309 75.1212 96.4574 75.8977C96.0028 76.6742 95.3873 77.2992 94.6108 77.7727C93.8532 78.2273 93.0009 78.4545 92.054 78.4545ZM114.085 78.4545C112.684 78.4545 111.481 77.9527 110.477 76.9489C109.473 75.9451 108.972 74.7424 108.972 73.3409C108.972 71.9394 109.473 70.7367 110.477 69.733C111.481 68.7292 112.684 68.2273 114.085 68.2273C115.487 68.2273 116.689 68.7292 117.693 69.733C118.697 70.7367 119.199 71.9394 119.199 73.3409C119.199 74.2689 118.962 75.1212 118.489 75.8977C118.034 76.6742 117.419 77.2992 116.642 77.7727C115.884 78.2273 115.032 78.4545 114.085 78.4545Z" fill="#033F33"/>
</svg>
