<svg width="25" height="30" viewBox="0 0 25 30" fill="none" xmlns="http://www.w3.org/2000/svg">
<path fill-rule="evenodd" clip-rule="evenodd" d="M1.18148 1.13257C1.93059 0.402354 2.93706 0 3.97727 0L14.7159 0C15.7408 0.000124344 16.7335 0.390818 17.4794 1.1018L23.7861 7.11366C23.7862 7.11373 23.786 7.1136 23.7861 7.11366C24.1669 7.47652 24.4724 7.91269 24.6818 8.39757C24.8913 8.88266 24.9999 9.4055 25 9.93493L25 26.0769C25 27.1329 24.5692 28.1357 23.8185 28.8674C23.0694 29.5976 22.0629 30 21.0227 30L3.97727 30C2.93706 30 1.93059 29.5976 1.18148 28.8674C0.43079 28.1357 0 27.1329 0 26.0769L0 3.92308C0 2.86706 0.43079 1.86431 1.18148 1.13257ZM3.97727 2.30769C3.51057 2.30769 3.07185 2.48885 2.75541 2.7973C2.44056 3.10422 2.27273 3.5102 2.27273 3.92308L2.27273 26.0769C2.27273 26.4898 2.44056 26.8958 2.75541 27.2027C3.07185 27.5111 3.51057 27.6923 3.97727 27.6923L21.0227 27.6923C21.4894 27.6923 21.9281 27.5111 22.2446 27.2027C22.5594 26.8958 22.7273 26.4898 22.7273 26.0769L22.7273 9.93522C22.7273 9.93517 22.7273 9.93527 22.7273 9.93522C22.7272 9.72687 22.6846 9.51923 22.6004 9.32434C22.5161 9.12928 22.3914 8.94934 22.2309 8.79649L15.924 2.78435C15.924 2.78434 15.924 2.78437 15.924 2.78435C15.6085 2.48368 15.1755 2.30778 14.7159 2.30769C14.7159 2.30769 14.716 2.30769 14.7159 2.30769L3.97727 2.30769Z" fill="#FCA82B"/>
<path fill-rule="evenodd" clip-rule="evenodd" d="M14.2031 6.69276V1.1543L16.4759 1.1543V6.69276C16.4759 7.10563 16.6437 7.51162 16.9585 7.81853C17.275 8.12698 17.7137 8.30814 18.1804 8.30814H23.8622V10.6158L18.1804 10.6158C17.1402 10.6158 16.1337 10.2135 15.3846 9.48327C14.6339 8.75152 14.2031 7.74878 14.2031 6.69276Z" fill="#FCA82B"/>
</svg>
