<svg width="24" height="20" viewBox="0 0 24 20" fill="none" xmlns="http://www.w3.org/2000/svg">
<path d="M20.6842 0.526367C22.5158 0.526367 24 2.01058 24 3.84216V16.1579C24 17.9895 22.5158 19.4737 20.6842 19.4737H3.31579C2.43639 19.4737 1.593 19.1244 0.971172 18.5026C0.349341 17.8807 0 17.0373 0 16.1579V3.84216C0 2.01058 1.48421 0.526367 3.31579 0.526367H20.6842ZM22.4211 6.43226L12.3802 11.9548C12.2769 12.0116 12.1622 12.0445 12.0445 12.0512C11.9268 12.0579 11.8091 12.0381 11.7 11.9933L11.6198 11.9554L1.57895 6.43163V16.1579C1.57895 16.6186 1.76194 17.0604 2.08766 17.3861C2.41338 17.7118 2.85515 17.8948 3.31579 17.8948H20.6842C21.1448 17.8948 21.5866 17.7118 21.9123 17.3861C22.2381 17.0604 22.4211 16.6186 22.4211 16.1579V6.43226ZM20.6842 2.10531H3.31579C2.85515 2.10531 2.41338 2.2883 2.08766 2.61402C1.76194 2.93974 1.57895 3.38152 1.57895 3.84216V4.631L12 10.3619L22.4211 4.63037V3.84216C22.4211 3.38152 22.2381 2.93974 21.9123 2.61402C21.5866 2.2883 21.1448 2.10531 20.6842 2.10531Z" fill="#FCA82B"/>
</svg>
