<svg width="24" height="19" viewBox="0 0 24 19" fill="none" xmlns="http://www.w3.org/2000/svg">
<path d="M20.6842 0.0263672C22.5158 0.0263672 24 1.51058 24 3.34216V15.6579C24 17.4895 22.5158 18.9737 20.6842 18.9737H3.31579C2.43639 18.9737 1.593 18.6244 0.971172 18.0026C0.349341 17.3807 0 16.5373 0 15.6579V3.34216C0 1.51058 1.48421 0.0263672 3.31579 0.0263672H20.6842ZM22.4211 5.93226L12.3802 11.4548C12.2769 11.5116 12.1622 11.5445 12.0445 11.5512C11.9268 11.5579 11.8091 11.5381 11.7 11.4933L11.6198 11.4554L1.57895 5.93163V15.6579C1.57895 16.1186 1.76194 16.5604 2.08766 16.8861C2.41338 17.2118 2.85515 17.3948 3.31579 17.3948H20.6842C21.1448 17.3948 21.5866 17.2118 21.9123 16.8861C22.2381 16.5604 22.4211 16.1186 22.4211 15.6579V5.93226ZM20.6842 1.60531H3.31579C2.85515 1.60531 2.41338 1.7883 2.08766 2.11402C1.76194 2.43974 1.57895 2.88152 1.57895 3.34216V4.131L12 9.86195L22.4211 4.13037V3.34216C22.4211 2.88152 22.2381 2.43974 21.9123 2.11402C21.5866 1.7883 21.1448 1.60531 20.6842 1.60531Z" fill="black" text-anchor="middle"/>
</svg>
