<svg width="20" height="19" viewBox="0 0 20 19" fill="none" xmlns="http://www.w3.org/2000/svg">
<path d="M9.99051 0.333008C4.93051 0.333008 0.833008 4.43967 0.833008 9.49967C0.833008 14.5597 4.93051 18.6663 9.99051 18.6663C15.0597 18.6663 19.1663 14.5597 19.1663 9.49967C19.1663 4.43967 15.0597 0.333008 9.99051 0.333008ZM16.343 5.83301H13.6388C13.3519 4.69768 12.9271 3.60175 12.3738 2.56967C14.0459 3.14534 15.4549 4.30375 16.343 5.83301ZM9.99967 2.20301C10.7605 3.30301 11.3563 4.52217 11.7505 5.83301H8.24884C8.64301 4.52217 9.23884 3.30301 9.99967 2.20301ZM2.90467 11.333C2.75801 10.7463 2.66634 10.1322 2.66634 9.49967C2.66634 8.86717 2.75801 8.25301 2.90467 7.66634H6.00301C5.92967 8.27134 5.87467 8.87634 5.87467 9.49967C5.87467 10.123 5.92967 10.728 6.00301 11.333H2.90467ZM3.65634 13.1663H6.36051C6.65384 14.3122 7.07551 15.4122 7.62551 16.4297C5.95164 15.8572 4.54169 14.6979 3.65634 13.1663ZM6.36051 5.83301H3.65634C4.54169 4.30142 5.95164 3.1422 7.62551 2.56967C7.07223 3.60175 6.6474 4.69768 6.36051 5.83301ZM9.99967 16.7963C9.23884 15.6963 8.64301 14.4772 8.24884 13.1663H11.7505C11.3563 14.4772 10.7605 15.6963 9.99967 16.7963ZM12.1447 11.333H7.85467C7.77217 10.728 7.70801 10.123 7.70801 9.49967C7.70801 8.87634 7.77217 8.26217 7.85467 7.66634H12.1447C12.2272 8.26217 12.2913 8.87634 12.2913 9.49967C12.2913 10.123 12.2272 10.728 12.1447 11.333ZM12.3738 16.4297C12.9238 15.4122 13.3455 14.3122 13.6388 13.1663H16.343C15.4549 14.6956 14.0459 15.854 12.3738 16.4297ZM13.9963 11.333C14.0697 10.728 14.1247 10.123 14.1247 9.49967C14.1247 8.87634 14.0697 8.27134 13.9963 7.66634H17.0947C17.2413 8.25301 17.333 8.86717 17.333 9.49967C17.333 10.1322 17.2413 10.7463 17.0947 11.333H13.9963Z" fill="black"/>
</svg>
