<svg width="102" height="111" viewBox="0 0 102 111" fill="none" xmlns="http://www.w3.org/2000/svg">
<path d="M42.7097 3.35924C45.0089 1.41531 47.9219 0.34778 50.9328 0.345706C53.9436 0.343632 56.8581 1.40715 59.16 3.34791L97.4667 35.6366C100.34 38.0562 102 41.6262 102 45.3832V100.911C102 103.541 100.955 106.063 99.0955 107.923C97.2357 109.783 94.7134 110.828 92.0833 110.828H9.91667C7.28758 110.828 4.7661 109.784 2.90653 107.925C1.04695 106.067 0.00150233 103.546 0 100.917V45.3832C0 41.6319 1.65467 38.0732 4.51633 35.6479L42.7097 3.35924V3.35924ZM72.4427 55.7363C72.8484 55.344 73.1719 54.8749 73.3944 54.3563C73.6169 53.8376 73.7339 53.2799 73.7385 52.7156C73.7432 52.1513 73.6354 51.5917 73.4214 51.0695C73.2075 50.5473 72.8917 50.0729 72.4925 49.6741C72.0932 49.2752 71.6186 48.9599 71.0962 48.7464C70.5738 48.533 70.0141 48.4257 69.4498 48.4309C68.8855 48.436 68.3278 48.5535 67.8094 48.7765C67.291 48.9995 66.8222 49.3235 66.4303 49.7296L43.9167 72.2376L35.5867 63.9076C35.1944 63.5019 34.7253 63.1783 34.2067 62.9558C33.6881 62.7333 33.1303 62.6164 32.566 62.6117C32.0017 62.6071 31.4421 62.7149 30.9199 62.9288C30.3977 63.1428 29.9233 63.4586 29.5245 63.8578C29.1256 64.257 28.8103 64.7317 28.5968 65.2541C28.3834 65.7765 28.2761 66.3362 28.2813 66.9005C28.2864 67.4648 28.404 68.0224 28.6269 68.5408C28.8499 69.0592 29.1739 69.5281 29.58 69.9199L40.9133 81.2533C41.7102 82.0491 42.7904 82.4962 43.9167 82.4962C45.0429 82.4962 46.1231 82.0491 46.92 81.2533L72.4427 55.7363V55.7363Z" fill="#033F33"/>
</svg>
