<svg width="28" height="29" viewBox="0 0 28 29" fill="none" xmlns="http://www.w3.org/2000/svg">
<path fill-rule="evenodd" clip-rule="evenodd" d="M8.33125 0.8325C9.7975 0.765 10.265 0.75 14 0.75C17.735 0.75 18.2025 0.76625 19.6675 0.8325C21.1325 0.89875 22.1325 1.1325 23.0075 1.47125C23.9237 1.8175 24.755 2.35875 25.4425 3.05875C26.1425 3.745 26.6825 4.575 27.0275 5.4925C27.3675 6.3675 27.6 7.3675 27.6675 8.83C27.735 10.2987 27.75 10.7663 27.75 14.5C27.75 18.235 27.7337 18.7025 27.6675 20.1688C27.6012 21.6313 27.3675 22.6313 27.0275 23.5063C26.6825 24.4239 26.1416 25.2552 25.4425 25.9425C24.755 26.6425 23.9237 27.1825 23.0075 27.5275C22.1325 27.8675 21.1325 28.1 19.67 28.1675C18.2025 28.235 17.735 28.25 14 28.25C10.265 28.25 9.7975 28.2337 8.33125 28.1675C6.86875 28.1012 5.86875 27.8675 4.99375 27.5275C4.07615 27.1825 3.24478 26.6416 2.5575 25.9425C1.85797 25.2558 1.31664 24.4249 0.97125 23.5075C0.6325 22.6325 0.4 21.6325 0.3325 20.17C0.265 18.7012 0.25 18.2337 0.25 14.5C0.25 10.765 0.26625 10.2975 0.3325 8.8325C0.39875 7.3675 0.6325 6.3675 0.97125 5.4925C1.31715 4.5751 1.8589 3.74414 2.55875 3.0575C3.24505 2.35813 4.07559 1.8168 4.9925 1.47125C5.8675 1.1325 6.8675 0.9 8.33 0.8325H8.33125ZM19.5562 3.3075C18.1062 3.24125 17.6712 3.2275 14 3.2275C10.3287 3.2275 9.89375 3.24125 8.44375 3.3075C7.1025 3.36875 6.375 3.5925 5.89 3.78125C5.24875 4.03125 4.79 4.3275 4.30875 4.80875C3.85256 5.25256 3.50148 5.79285 3.28125 6.39C3.0925 6.875 2.86875 7.6025 2.8075 8.94375C2.74125 10.3937 2.7275 10.8287 2.7275 14.5C2.7275 18.1712 2.74125 18.6062 2.8075 20.0562C2.86875 21.3975 3.0925 22.125 3.28125 22.61C3.50125 23.2063 3.8525 23.7475 4.30875 24.1912C4.7525 24.6475 5.29375 24.9988 5.89 25.2188C6.375 25.4075 7.1025 25.6313 8.44375 25.6925C9.89375 25.7588 10.3275 25.7725 14 25.7725C17.6725 25.7725 18.1062 25.7588 19.5562 25.6925C20.8975 25.6313 21.625 25.4075 22.11 25.2188C22.7513 24.9688 23.21 24.6725 23.6912 24.1912C24.1475 23.7475 24.4988 23.2063 24.7188 22.61C24.9075 22.125 25.1313 21.3975 25.1925 20.0562C25.2588 18.6062 25.2725 18.1712 25.2725 14.5C25.2725 10.8287 25.2588 10.3937 25.1925 8.94375C25.1313 7.6025 24.9075 6.875 24.7188 6.39C24.4688 5.74875 24.1725 5.29 23.6912 4.80875C23.2474 4.35259 22.7071 4.00151 22.11 3.78125C21.625 3.5925 20.8975 3.36875 19.5562 3.3075ZM12.2438 18.7388C13.2246 19.147 14.3167 19.2021 15.3337 18.8947C16.3506 18.5872 17.2292 17.9361 17.8195 17.0528C18.4098 16.1695 18.6751 15.1086 18.5701 14.0514C18.465 12.9942 17.9963 12.0062 17.2437 11.2562C16.764 10.7768 16.184 10.4098 15.5454 10.1814C14.9068 9.9531 14.2255 9.8692 13.5506 9.93577C12.8757 10.0023 12.2239 10.2177 11.6423 10.5664C11.0606 10.9151 10.5634 11.3884 10.1866 11.9523C9.80983 12.5162 9.56274 13.1566 9.46314 13.8275C9.36355 14.4983 9.41394 15.1829 9.61067 15.8319C9.80741 16.4809 10.1456 17.0783 10.6009 17.5809C11.0562 18.0835 11.6173 18.479 12.2438 18.7388ZM9.0025 9.5025C9.65878 8.84622 10.4379 8.32563 11.2954 7.97045C12.1528 7.61527 13.0719 7.43247 14 7.43247C14.9281 7.43247 15.8472 7.61527 16.7046 7.97045C17.5621 8.32563 18.3412 8.84622 18.9975 9.5025C19.6538 10.1588 20.1744 10.9379 20.5295 11.7954C20.8847 12.6528 21.0675 13.5719 21.0675 14.5C21.0675 15.4281 20.8847 16.3472 20.5295 17.2046C20.1744 18.0621 19.6538 18.8412 18.9975 19.4975C17.6721 20.8229 15.8744 21.5675 14 21.5675C12.1256 21.5675 10.3279 20.8229 9.0025 19.4975C7.67708 18.1721 6.93247 16.3744 6.93247 14.5C6.93247 12.6256 7.67708 10.8279 9.0025 9.5025ZM22.635 8.485C22.7976 8.33159 22.9278 8.1471 23.0179 7.94247C23.1079 7.73783 23.156 7.51721 23.1593 7.29366C23.1625 7.07011 23.1209 6.84818 23.0369 6.64101C22.9528 6.43384 22.828 6.24564 22.67 6.08755C22.5119 5.92946 22.3237 5.8047 22.1165 5.72065C21.9093 5.6366 21.6874 5.59497 21.4638 5.59823C21.2403 5.60149 21.0197 5.64957 20.815 5.73962C20.6104 5.82967 20.4259 5.95987 20.2725 6.1225C19.9741 6.43879 19.8108 6.8589 19.8171 7.29366C19.8235 7.72842 19.999 8.1436 20.3064 8.45105C20.6139 8.75851 21.0291 8.93404 21.4638 8.94037C21.8986 8.94671 22.3187 8.78336 22.635 8.485Z" fill="#222222"/>
</svg>
