<?xml version="1.0" encoding="UTF-8"?><svg id="a" xmlns="http://www.w3.org/2000/svg" viewBox="0 0 128.27 99.92"><defs><style>.b{fill:#fff;}.c{fill:#fca82b;}</style></defs><path class="c" d="M61.67,87.71V37.77l-8.2-1.2V18.52h30.95L50.6,.47c-1.18-.63-2.6-.63-3.79,0L2.13,24.33c-1.31,.7-2.13,2.06-2.13,3.55V95.9c0,2.22,1.8,4.02,4.02,4.02H53.37v-11.21l8.3-1Z"/><path class="b" d="M120.02,90.27c-1.5-2.17-3.89-5.82-7.15-10.95-3.8-6-7.02-10.9-9.65-14.7-2.03-2.92-3.96-5.3-5.8-7.16-.56-.56-1.11-1.07-1.65-1.54l1.65-1.85,19.95-22.35,7.7-1.2v-5h-24.7v5l8.4,1.2-11.35,13.51-18.05,21.49V31.72l8.3-1.2v-5h-27.2v5l8.2,1.2v62.2l-8.3,1v4.9h28.1v-4.9l-9.1-1v-19.3l10.1-11.4c1.2,1.33,2.58,3.16,4.15,5.5,1.19,1.77,2.45,3.8,3.8,6.1,.43,.72,.86,1.47,1.3,2.25,1.83,3.23,2.95,5.21,3.35,5.95,3.26,5.8,5.78,10.05,7.55,12.75,1.76,2.7,3.21,4.05,4.35,4.05h14.3v-4.9l-4.7-1.1c-.87-.2-2.05-1.39-3.55-3.55Z"/></svg>