<?xml version="1.0" encoding="UTF-8"?><svg id="a" xmlns="http://www.w3.org/2000/svg" viewBox="0 0 549.36 100.92"><defs><style>.b{fill:#fff;}.c{fill:#fca82b;}</style></defs><path class="c" d="M61.67,87.71V37.77l-8.2-1.2V18.52h30.95L50.6,.47c-1.18-.63-2.6-.63-3.79,0L2.13,24.33c-1.31,.7-2.13,2.06-2.13,3.55V95.9c0,2.22,1.8,4.02,4.02,4.02H53.37v-11.21l8.3-1Z"/><path class="b" d="M120.02,90.27c-1.5-2.17-3.89-5.82-7.15-10.95-3.8-6-7.02-10.9-9.65-14.7-2.03-2.92-3.96-5.3-5.8-7.16-.56-.56-1.11-1.07-1.65-1.54l1.65-1.85,19.95-22.35,7.7-1.2v-5h-24.7v5l8.4,1.2-11.35,13.51-18.05,21.49V31.72l8.3-1.2v-5h-27.2v5l8.2,1.2v62.2l-8.3,1v4.9h28.1v-4.9l-9.1-1v-19.3l10.1-11.4c1.2,1.33,2.58,3.16,4.15,5.5,1.19,1.77,2.45,3.8,3.8,6.1,.43,.72,.86,1.47,1.3,2.25,1.83,3.23,2.95,5.21,3.35,5.95,3.26,5.8,5.78,10.05,7.55,12.75,1.76,2.7,3.21,4.05,4.35,4.05h14.3v-4.9l-4.7-1.1c-.87-.2-2.05-1.39-3.55-3.55Z"/><path class="b" d="M159.07,42.82c-4.6,0-8.92,1.15-12.95,3.45-4.03,2.3-7.28,5.65-9.75,10.05-2.47,4.4-3.7,9.6-3.7,15.6,0,8.67,2.12,15.67,6.35,21,4.23,5.33,10.55,8,18.95,8,4.6,0,8.92-1.13,12.95-3.4,4.03-2.27,7.28-5.6,9.75-10,2.47-4.4,3.7-9.63,3.7-15.7,0-8.67-2.12-15.67-6.35-21-4.23-5.33-10.55-8-18.95-8Zm10.1,46.7c-2.47,3.8-6,5.7-10.6,5.7-4.93,0-8.57-2.17-10.9-6.5-2.33-4.33-3.5-10.2-3.5-17.6s1.25-13.1,3.75-16.9c2.5-3.8,6.05-5.7,10.65-5.7,5,0,8.63,2.17,10.9,6.5,2.27,4.33,3.4,10.2,3.4,17.6s-1.23,13.1-3.7,16.9Z"/><polygon class="b" points="206.17 19.42 203.97 17.92 203.77 17.92 187.67 19.82 187.67 24.12 195.77 25.22 195.77 94.02 187.67 94.92 187.67 99.82 214.67 99.82 214.67 94.92 206.17 94.12 206.17 19.42"/><polygon class="b" points="239.47 19.42 237.27 17.92 237.07 17.92 220.97 19.82 220.97 24.12 229.07 25.22 229.07 94.02 220.97 94.92 220.97 99.82 247.97 99.82 247.97 94.92 239.47 94.12 239.47 19.42"/><path class="b" d="M277.96,42.82c-5.07,0-9.58,1.2-13.55,3.6-3.97,2.4-7.05,5.8-9.25,10.2-2.2,4.4-3.3,9.5-3.3,15.3,0,8.8,2.12,15.83,6.35,21.1,4.23,5.27,10.38,7.9,18.45,7.9,3.93,0,7.8-.73,11.6-2.2,3.8-1.47,6.67-3.2,8.6-5.2l-1.9-4.4c-1.6,1.33-3.85,2.48-6.75,3.45-2.9,.97-5.68,1.45-8.35,1.45-5.4,0-9.57-2.02-12.5-6.05-2.93-4.03-4.47-9.35-4.6-15.95h34.4c.47-2.13,.7-5.23,.7-9.3-.2-6.4-2.02-11.32-5.45-14.75s-8.25-5.15-14.45-5.15Zm8.9,23.9h-24c.33-6.6,1.65-11.3,3.95-14.1s5.38-4.2,9.25-4.2,6.58,1.25,8.35,3.75c1.77,2.5,2.68,5.92,2.75,10.25,0,1.47-.1,2.9-.3,4.3Z"/><polygon class="b" points="339.16 64.62 353.86 50.32 361.76 48.92 361.76 44.32 337.56 44.32 337.56 48.92 345.06 50.32 321.96 74.22 322.16 68.32 322.16 19.42 319.96 17.92 319.86 17.92 303.96 19.82 303.96 24.12 311.76 25.22 311.76 94.02 305.46 94.92 305.46 99.82 329.26 99.82 329.26 94.92 322.16 94.02 322.16 86.12 321.96 81.02 332.26 70.82 346.36 94.02 340.06 94.92 340.06 99.82 364.36 99.82 364.36 94.92 358.16 94.12 339.16 64.62"/><path class="b" d="M397.51,92.62c-2.17,.47-4.15,.7-5.95,.7s-3.18-.23-3.95-.7c-.77-.47-1.27-1.47-1.5-3-.23-1.53-.35-4.2-.35-8v-30.7h16.7v-6.6h-16.7l-.2-14.4h-5.9c-.13,.54-.57,2.2-1.3,5-.73,2.8-1.37,4.83-1.9,6.1-.6,1.8-1.43,3-2.5,3.6-.53,.33-1.57,.7-3.1,1.1-1.54,.4-2.47,.63-2.8,.7v4.5h7.2v38.4c0,4.2,.93,7.17,2.8,8.9,1.87,1.73,4.7,2.6,8.5,2.6,2.93,0,6.18-.57,9.75-1.7s6.15-2.3,7.75-3.5l-1.5-4.5c-1.2,.53-2.88,1.03-5.05,1.5Z"/><path class="b" d="M421.96,34.32h.1c2.33,0,4.15-.67,5.45-2,1.3-1.33,1.95-3.13,1.95-5.4,0-1.87-.53-3.4-1.6-4.6-1.07-1.2-2.73-1.8-5-1.8s-4.05,.7-5.35,2.1c-1.3,1.4-1.95,3.17-1.95,5.3,0,1.87,.53,3.4,1.6,4.6,1.07,1.2,2.67,1.8,4.8,1.8Z"/><polygon class="b" points="428.36 44.82 426.06 43.02 425.86 43.02 410.36 44.92 410.36 50.22 417.96 52.02 417.96 94.02 409.86 94.92 409.86 99.82 436.36 99.82 436.36 94.92 428.36 94.12 428.36 44.82"/><polygon class="b" points="476.16 49.02 482.96 50.32 472.86 79.52 469.26 91.82 465.06 79.12 454.96 50.32 462.06 49.02 462.06 44.32 438.86 44.32 438.86 49.02 443.36 50.32 463.46 100.62 471.96 100.62 491.26 50.32 496.46 49.02 496.46 44.32 476.16 44.32 476.16 49.02"/><path class="b" d="M543.46,94.92V62.82c0-4.8-.6-8.63-1.8-11.5-1.2-2.87-3.18-4.95-5.95-6.25-2.77-1.3-6.52-1.95-11.25-1.95-3.07,0-6.13,.47-9.2,1.4-3.07,.93-5.77,2-8.1,3.2-2.33,1.2-3.93,2.17-4.8,2.9l2.5,5.2c2.67-1.4,5.35-2.58,8.05-3.55,2.7-.97,5.75-1.45,9.15-1.45,3,0,5.32,.42,6.95,1.25,1.63,.83,2.78,2.15,3.45,3.95,.67,1.8,1,4.27,1,7.4v2.8c-9.6,.2-17.53,1.78-23.8,4.75-6.27,2.97-9.4,7.58-9.4,13.85,0,5.2,1.58,9.18,4.75,11.95,3.17,2.77,7.15,4.15,11.95,4.15,3.67,0,6.95-.83,9.85-2.5,2.9-1.67,5.35-3.5,7.35-5.5v3.3c0,1.93,.33,3.18,1,3.75,.67,.57,1.93,.85,3.8,.85,1.53,0,3.32-.17,5.35-.5,2.03-.33,3.72-.67,5.05-1v-4.4h-5.9Zm-10-6.2c-1.87,1.47-3.93,2.73-6.2,3.8-2.27,1.07-4.27,1.6-6,1.6-3,0-5.38-.85-7.15-2.55-1.77-1.7-2.65-4.35-2.65-7.95s1.85-6.52,5.55-8.75c3.7-2.23,9.18-3.35,16.45-3.35v17.2Z"/></svg>