<svg width="20" height="26" viewBox="0 0 20 26" fill="none" xmlns="http://www.w3.org/2000/svg">
<path d="M1 20.5V21.75C1 22.413 1.26339 23.0489 1.73223 23.5178C2.20107 23.9866 2.83696 24.25 3.5 24.25L16 24.25C16.663 24.25 17.2989 23.9866 17.7678 23.5178C18.2366 23.0489 18.5 22.413 18.5 21.75L18.5 4.25C18.5 3.58696 18.2366 2.95107 17.7678 2.48223C17.2989 2.01339 16.663 1.75 16 1.75L3.5 1.75C2.83696 1.75 2.20107 2.01339 1.73223 2.48223C1.26339 2.95107 1 3.58696 1 4.25V5.5M1 13H9.75H1ZM9.75 13L6 9.25L9.75 13ZM9.75 13L6 16.75L9.75 13Z" stroke="#FCA82B" stroke-width="1.875" stroke-linecap="round" stroke-linejoin="round"/>
</svg>
