<svg width="215" height="41" viewBox="0 0 215 41" fill="none" xmlns="http://www.w3.org/2000/svg">
<g clip-path="url(#clip0_719_43)">
<path d="M24.1354 34.9745V15.5696L20.9263 15.1033V8.08975H33.039L19.803 1.07617C19.3412 0.831379 18.7855 0.831379 18.3198 1.07617L0.833606 10.3473C0.320919 10.6193 0 11.1477 0 11.7267V38.1568C0 39.0194 0.704456 39.7188 1.57329 39.7188H20.8871V35.363L24.1354 34.9745Z" fill="#FCA82B"/>
<path d="M46.9719 35.9691C46.3848 35.1259 45.4494 33.7076 44.1736 31.7143C42.6864 29.3829 41.4262 27.479 40.3969 26.0024C39.6025 24.8678 38.8471 23.943 38.127 23.2203C37.9078 23.0027 37.6926 22.8045 37.4813 22.6219L38.127 21.9031L45.9347 13.2187L48.9482 12.7524V10.8096H39.2815V12.7524L42.569 13.2187L38.127 18.4682L31.0629 26.8184V13.2187L34.3112 12.7524V10.8096H23.6661V12.7524L26.8753 13.2187V37.3873L23.627 37.7759V39.6798H34.6243V37.7759L31.0629 37.3873V29.888L35.0157 25.4584C35.4853 25.9752 36.0254 26.6863 36.6398 27.5955C37.1056 28.2833 37.5987 29.0721 38.127 29.9658C38.2953 30.2455 38.4636 30.5369 38.6358 30.84C39.352 32.0951 39.7903 32.8644 39.9469 33.152C41.2227 35.4056 42.2089 37.057 42.9017 38.1062C43.5905 39.1553 44.1579 39.6798 44.6041 39.6798H50.2006V37.7759L48.3612 37.3485C48.0207 37.2708 47.5589 36.8084 46.9719 35.9691Z" fill="white"/>
<path d="M62.2539 17.5322C60.4536 17.5322 58.7629 17.9791 57.1857 18.8728C55.6085 19.7665 54.3366 21.0682 53.3699 22.7778C52.4033 24.4875 51.9219 26.508 51.9219 28.8394C51.9219 32.2083 52.7516 34.9282 54.407 36.9993C56.0625 39.0703 58.5359 40.1078 61.8234 40.1078C63.6237 40.1078 65.3144 39.6687 66.8916 38.7867C68.4688 37.9046 69.7407 36.6107 70.7074 34.901C71.674 33.1913 72.1554 31.1592 72.1554 28.8006C72.1554 25.4317 71.3257 22.7118 69.6703 20.6407C68.0148 18.5697 65.5414 17.5322 62.2539 17.5322ZM66.2067 35.6781C65.24 37.1547 63.8585 37.893 62.0582 37.893C60.1288 37.893 58.7042 37.0498 57.7923 35.3673C56.8805 33.6848 56.4226 31.4039 56.4226 28.5286C56.4226 25.6532 56.9118 23.4384 57.8902 21.9619C58.8686 20.4853 60.2579 19.747 62.0582 19.747C64.015 19.747 65.4357 20.5902 66.3241 22.2727C67.2125 23.9552 67.6547 26.2361 67.6547 29.1114C67.6547 31.9868 67.1734 34.2016 66.2067 35.6781Z" fill="white"/>
<path d="M80.6875 8.43929L79.8265 7.85645H79.7482L73.4473 8.59472V10.2655L76.6173 10.693V37.4261L73.4473 37.7758V39.6798H84.0141V37.7758L80.6875 37.465V8.43929Z" fill="white"/>
<path d="M93.7207 8.43929L92.8597 7.85645H92.7814L86.4805 8.59472V10.2655L89.6505 10.693V37.4261L86.4805 37.7758V39.6798H97.0473V37.7758L93.7207 37.465V8.43929Z" fill="white"/>
<path d="M108.783 17.5322C106.799 17.5322 105.034 17.9985 103.48 18.9311C101.926 19.8636 100.721 21.1847 99.8599 22.8944C98.9989 24.6041 98.5684 26.5858 98.5684 28.8394C98.5684 32.2588 99.398 34.9904 101.054 37.0381C102.709 39.0858 105.116 40.1078 108.274 40.1078C109.812 40.1078 111.327 39.8241 112.814 39.2529C114.301 38.6817 115.424 38.0095 116.18 37.2324L115.436 35.5227C114.81 36.0395 113.929 36.4864 112.794 36.8633C111.659 37.2402 110.571 37.4267 109.527 37.4267C107.413 37.4267 105.781 36.6418 104.635 35.0759C103.488 33.51 102.885 31.4428 102.834 28.8783H116.297C116.481 28.0506 116.571 26.8461 116.571 25.2646C116.493 22.7778 115.781 20.8661 114.438 19.5333C113.096 18.2006 111.209 17.5322 108.783 17.5322ZM112.266 26.8189H102.873C103.003 24.2544 103.519 22.4281 104.419 21.3401C105.319 20.2522 106.525 19.7082 108.039 19.7082C109.554 19.7082 110.615 20.1939 111.307 21.1653C112 22.1367 112.356 23.4656 112.384 25.1481C112.384 25.7193 112.344 26.2749 112.266 26.8189Z" fill="white"/>
<path d="M132.735 26.0024L138.488 20.4459L141.58 19.9019V18.1145H132.109V19.9019L135.044 20.4459L126.004 29.7326L126.082 27.44V8.43929L125.221 7.85645H125.182L118.959 8.59472V10.2655L122.012 10.693V37.4261L119.546 37.7758V39.6798H128.86V37.7758L126.082 37.4261V34.3565L126.004 32.3748L130.035 28.4115L135.553 37.4261L133.087 37.7758V39.6798H142.597V37.7758L140.171 37.465L132.735 26.0024Z" fill="white"/>
<path d="M155.571 36.8825C154.721 37.0651 153.946 37.1545 153.242 37.1545C152.538 37.1545 151.997 37.0651 151.696 36.8825C151.395 36.6998 151.199 36.3113 151.109 35.7168C151.019 35.1223 150.972 34.0848 150.972 32.6083V20.6794H157.508V18.1148H150.972L150.894 12.5195H148.585C148.534 12.7294 148.362 13.3744 148.076 14.4623C147.79 15.5503 147.54 16.3391 147.332 16.8326C147.098 17.532 146.773 17.9983 146.354 18.2314C146.147 18.3596 145.74 18.5034 145.141 18.6588C144.538 18.8143 144.174 18.9036 144.045 18.9308V20.6794H146.863V35.6002C146.863 37.2322 147.227 38.3862 147.959 39.0584C148.69 39.7306 149.798 40.0687 151.285 40.0687C152.432 40.0687 153.704 39.8472 155.101 39.4081C156.498 38.9691 157.508 38.5144 158.134 38.0482L157.547 36.2996C157.077 36.5056 156.42 36.6998 155.571 36.8825Z" fill="white"/>
<path d="M165.139 14.2294H165.179C166.091 14.2294 166.803 13.969 167.312 13.4522C167.82 12.9354 168.075 12.236 168.075 11.354C168.075 10.6274 167.867 10.0329 167.449 9.5666C167.03 9.10033 166.38 8.86719 165.492 8.86719C164.603 8.86719 163.907 9.13918 163.398 9.68317C162.889 10.2272 162.635 10.9149 162.635 11.7426C162.635 12.4692 162.842 13.0637 163.261 13.53C163.68 13.9962 164.306 14.2294 165.139 14.2294Z" fill="white"/>
<path d="M167.645 18.3088L166.744 17.6094H166.666L160.6 18.3476V20.407L163.574 21.1064V37.4261L160.404 37.7758V39.6798H170.775V37.7758L167.645 37.465V18.3088Z" fill="white"/>
<path d="M186.352 19.9405L189.013 20.4456L185.06 31.7917L183.651 36.571L182.008 31.6363L178.055 20.4456L180.834 19.9405V18.1143H171.754V19.9405L173.515 20.4456L181.381 39.9904H184.708L192.261 20.4456L194.296 19.9405V18.1143H186.352V19.9405Z" fill="white"/>
<path d="M212.69 37.776V25.3031C212.69 23.438 212.455 21.9498 211.986 20.8347C211.516 19.7195 210.741 18.9113 209.657 18.4061C208.573 17.901 207.105 17.6484 205.254 17.6484C204.053 17.6484 202.855 17.8311 201.654 18.1924C200.452 18.5538 199.395 18.9696 198.484 19.4358C197.572 19.9021 196.946 20.279 196.605 20.5627L197.583 22.5832C198.628 22.0392 199.677 21.5807 200.734 21.2038C201.791 20.8269 202.984 20.6404 204.315 20.6404C205.489 20.6404 206.397 20.8036 207.035 21.1261C207.673 21.4486 208.123 21.9615 208.385 22.6609C208.647 23.3603 208.776 24.3201 208.776 25.5363V26.6243C205.019 26.702 201.916 27.3159 199.462 28.4699C197.008 29.624 195.783 31.4152 195.783 33.8515C195.783 35.8721 196.402 37.4186 197.642 38.4949C198.883 39.5712 200.44 40.1074 202.319 40.1074C203.755 40.1074 205.039 39.7849 206.174 39.136C207.309 38.4871 208.268 37.776 209.05 36.9989V38.2812C209.05 39.0311 209.18 39.5168 209.442 39.7383C209.704 39.9598 210.197 40.0686 210.929 40.0686C211.528 40.0686 212.228 40.0025 213.023 39.8743C213.817 39.746 214.479 39.6139 214.999 39.4857V37.776H212.69ZM208.776 35.3669C208.045 35.9381 207.238 36.4277 206.35 36.8435C205.462 37.2592 204.679 37.4652 204.002 37.4652C202.828 37.4652 201.896 37.1349 201.204 36.4743C200.511 35.8138 200.166 34.7841 200.166 33.3853C200.166 31.9864 200.891 30.8518 202.339 29.9853C203.787 29.1188 205.931 28.6836 208.776 28.6836V35.3669Z" fill="white"/>
</g>
<defs>
<clipPath id="clip0_719_43">
<rect width="215" height="39.2138" fill="white" transform="translate(0 0.893555)"/>
</clipPath>
</defs>
</svg>
