<svg width="39" height="30" viewBox="0 0 39 30" fill="none" xmlns="http://www.w3.org/2000/svg">
<g clip-path="url(#clip0_763_782)">
<path d="M18.7505 26.3338V11.3398L16.2573 10.9796V5.56022H25.6676L15.3847 0.140887C15.026 -0.0482644 14.5942 -0.0482644 14.2324 0.140887L0.647618 7.30462C0.249318 7.51479 0 7.92311 0 8.37047V28.7928C0 29.4593 0.547283 29.9998 1.22227 29.9998H16.2269V26.6341L18.7505 26.3338Z" fill="#FCA82B"/>
<path d="M36.4918 27.1027C36.0357 26.4511 35.3091 25.3553 34.3179 23.815C33.1625 22.0136 32.1835 20.5424 31.3838 19.4015C30.7666 18.5248 30.1798 17.8102 29.6204 17.2518C29.4501 17.0836 29.2829 16.9305 29.1187 16.7894L29.6204 16.234L35.6861 9.5236L38.0273 9.16331V7.66211H30.5173V9.16331L33.0713 9.5236L29.6204 13.5798L24.1323 20.032V9.5236L26.6559 9.16331V7.66211H18.3859V9.16331L20.8791 9.5236V28.1985L18.3555 28.4988V29.97H26.8992V28.4988L24.1323 28.1985V22.4039L27.2032 18.9812C27.5681 19.3805 27.9876 19.9299 28.465 20.6325C28.8268 21.1639 29.2099 21.7734 29.6204 22.464C29.7511 22.6801 29.8819 22.9053 30.0156 23.1395C30.572 24.1093 30.9126 24.7037 31.0342 24.9259C32.0254 26.6673 32.7916 27.9433 33.3297 28.754C33.8649 29.5646 34.3057 29.97 34.6523 29.97H39.0002V28.4988L37.5712 28.1685C37.3067 28.1085 36.9479 27.7512 36.4918 27.1027Z" fill="white"/>
</g>
<defs>
<clipPath id="clip0_763_782">
<rect width="39" height="30" fill="white"/>
</clipPath>
</defs>
</svg>
