<svg width="30" height="25" viewBox="0 0 30 25" fill="none" xmlns="http://www.w3.org/2000/svg">
<path d="M19.1321 20.8661C19.1222 20.5192 19.0957 20.1723 19.0493 19.829C19.046 19.8109 19.046 19.7929 19.0427 19.7748C19.0229 19.6411 19.003 19.511 18.9765 19.3773C18.9169 19.0629 18.8441 18.7558 18.7514 18.4523V18.4486C18.7183 18.3475 18.6852 18.2499 18.6488 18.1487C18.4005 17.473 18.0628 16.8478 17.6358 16.295C17.6259 16.2805 17.616 16.2697 17.606 16.2552C17.5961 16.2408 17.5862 16.2299 17.5763 16.2155C17.4968 16.1179 17.3346 15.9336 17.3346 15.9336L17.2452 15.836C17.2452 15.836 17.1327 15.7204 17.0764 15.6626C16.4706 15.0664 15.7655 14.5966 15.0107 14.2461C13.6469 13.6137 12.1738 13.3282 10.7007 13.2343C9.40965 13.1512 8.1087 13.2054 6.83087 13.4222C4.80493 13.7691 2.69624 14.6327 1.38869 16.4359C0.73325 17.3393 0.309526 18.4088 0.127446 19.5435C-0.0149004 20.4288 0.00165494 21.3177 0.00165494 22.2139V23.4678C0.00165494 23.5798 -0.00496528 23.6882 0.00827608 23.7966C0.0513106 24.1833 0.233382 24.5193 0.521381 24.747C0.842485 24.9999 1.19341 24.9927 1.56084 24.9927H17.8905C18.2149 24.9927 18.5129 24.8626 18.7413 24.6313H18.7314C18.8307 24.5265 18.9168 24.4073 18.983 24.27C19.0492 24.1327 19.0955 23.9809 19.1187 23.8219V23.8183C19.1352 23.6665 19.1352 23.5112 19.1352 23.3558V21.2635C19.1385 21.2527 19.1385 21.2419 19.1419 21.231C19.1385 21.1118 19.1352 20.9889 19.1319 20.8661L19.1321 20.8661Z" fill="#FCA82B"/>
<path d="M30.0005 21.6683C30.0005 21.7008 29.9972 21.7297 29.9906 21.755V23.6593C29.9906 24.0279 29.9177 24.3748 29.6728 24.6422C29.4576 24.8771 29.1762 24.9927 28.875 24.9964C28.2261 25.0036 27.574 24.9964 26.9252 24.9964H20.1456C20.2052 24.8807 20.2548 24.7579 20.2945 24.635C20.3343 24.5157 20.3608 24.3965 20.3839 24.2736C20.4435 23.9556 20.4568 23.6268 20.4568 23.298V21.3647C20.4634 21.3033 20.4667 21.2419 20.4667 21.1804C20.4601 19.464 20.1092 17.6789 19.2352 16.2263C19.1425 16.0745 19.0498 15.9263 18.9505 15.7818C18.8777 15.6734 18.8016 15.5722 18.7221 15.4674C18.6427 15.3626 18.5632 15.2615 18.4805 15.1639C19.2154 14.9688 19.9701 14.8567 20.7249 14.8061C21.9563 14.723 23.2076 14.7809 24.4225 15.0266C25.4719 15.2398 26.5213 15.6156 27.425 16.2443C28.203 16.7864 28.8684 17.5199 29.3086 18.4124C29.7985 19.4133 29.9938 20.5408 30.0005 21.6682L30.0005 21.6683Z" fill="#FCA82B"/>
<path d="M26.3505 8.41393C26.3505 8.42116 26.3439 8.42477 26.3439 8.432C26.3439 8.43561 26.3406 8.43561 26.3406 8.43923C26.3373 8.6994 26.3141 8.95235 26.281 9.20888C26.0029 11.2397 24.5067 12.9344 22.6661 13.3355C20.7693 13.7475 18.7996 12.8152 17.7966 11.0048C16.7936 9.19084 16.9757 6.84568 18.1972 5.21598C19.4054 3.60076 21.5141 2.97198 23.305 3.69472C25.1025 4.42102 26.3241 6.30009 26.3439 8.39231C26.3439 8.39954 26.3505 8.40677 26.3505 8.41399L26.3505 8.41393Z" fill="#FCA82B"/>
<path d="M14.863 5.78744C14.863 5.79828 14.8696 5.8055 14.8696 5.80912C14.8663 6.10904 14.8464 6.40896 14.8034 6.70524C14.4757 9.04684 12.7576 11.0017 10.6291 11.4642C8.45089 11.9376 6.18657 10.868 5.02799 8.79384C3.85942 6.70161 4.06468 3.98059 5.48151 2.09439C6.87846 0.23342 9.30828 -0.489321 11.3772 0.34185C13.4528 1.17659 14.8497 3.35195 14.8696 5.76577C14.8696 5.773 14.863 5.78022 14.863 5.78745L14.863 5.78744Z" fill="#FCA82B"/>
</svg>
