<svg width="85" height="70" viewBox="0 0 85 70" fill="none" xmlns="http://www.w3.org/2000/svg">
<path d="M54.2076 58.4267C54.1795 57.4554 54.1044 56.4841 53.9731 55.523C53.9637 55.4724 53.9637 55.4218 53.9544 55.3712C53.8981 54.9968 53.8418 54.6326 53.7668 54.2582C53.5979 53.378 53.3916 52.518 53.129 51.6681V51.658C53.0352 51.3747 52.9414 51.1015 52.8382 50.8182C52.1348 48.9261 51.1781 47.1757 49.9682 45.6277C49.9401 45.5872 49.9119 45.5568 49.8838 45.5164C49.8557 45.4759 49.8275 45.4455 49.7994 45.4051C49.5743 45.1319 49.1147 44.6159 49.1147 44.6159L48.8614 44.3427C48.8614 44.3427 48.5425 44.0189 48.3831 43.857C46.6666 42.1876 44.6689 40.8722 42.5304 39.8908C38.6662 38.1201 34.4924 37.3208 30.3186 37.0579C26.6607 36.8251 22.9747 36.9769 19.3541 37.584C13.614 38.5553 7.63935 40.9734 3.93462 46.0222C2.07754 48.5517 0.876992 51.5465 0.361098 54.7235C-0.0422178 57.2023 0.00468899 59.6914 0.00468899 62.2005V65.7115C0.00468899 66.0252 -0.0140683 66.3287 0.0234489 66.6322C0.14538 67.7149 0.66125 68.6559 1.47725 69.2933C2.38704 70.0015 3.38132 69.9813 4.42237 69.9813H50.6898C51.609 69.9813 52.4531 69.617 53.1004 68.9695H53.0722C53.3536 68.6761 53.5975 68.3422 53.7851 67.9577C53.9726 67.5732 54.104 67.1483 54.1696 66.7031V66.693C54.2165 66.268 54.2165 65.833 54.2165 65.3979V59.5397C54.2259 59.5093 54.2259 59.479 54.2353 59.4486C54.2259 59.1147 54.2165 58.7707 54.2071 58.4267L54.2076 58.4267Z" fill="#033F33"/>
<path d="M84.9994 60.6723C84.9994 60.7633 84.9901 60.8443 84.9713 60.9151V66.2471C84.9713 67.2792 84.765 68.2505 84.0709 68.9992C83.4612 69.6569 82.664 69.9806 81.8104 69.9908C79.972 70.011 78.1244 69.9908 76.286 69.9908H57.0772C57.246 69.667 57.3867 69.323 57.4993 68.979C57.6118 68.6451 57.6869 68.3112 57.7525 67.9672C57.9213 67.0768 57.9588 66.1561 57.9588 65.2353V59.8222C57.9776 59.6502 57.987 59.4782 57.987 59.3062C57.9682 54.5001 56.974 49.502 54.4978 45.4345C54.2352 45.0096 53.9726 44.5947 53.6912 44.19C53.4849 43.8865 53.2692 43.6032 53.0441 43.3098C52.819 43.0164 52.5939 42.733 52.3594 42.4599C54.4416 41.9135 56.58 41.5998 58.7185 41.4582C62.2077 41.2255 65.753 41.3874 69.1952 42.0754C72.1684 42.6723 75.1417 43.7246 77.7023 45.4851C79.9065 47.0028 81.7917 49.0568 83.0391 51.5558C84.4272 54.3583 84.9805 57.5152 84.9994 60.6719L84.9994 60.6723Z" fill="#033F33"/>
<path d="M74.6546 23.5588C74.6546 23.579 74.6359 23.5892 74.6359 23.6094C74.6359 23.6195 74.6265 23.6195 74.6265 23.6296C74.6171 24.3581 74.5515 25.0664 74.4577 25.7847C73.6698 31.4708 69.4305 36.2162 64.2154 37.3392C58.8411 38.4927 53.2604 35.8823 50.4185 30.8133C47.5767 25.7342 48.0926 19.1677 51.5534 14.6046C54.9769 10.0819 60.9515 8.32134 66.0257 10.345C71.1186 12.3787 74.5796 17.64 74.6359 23.4983C74.6359 23.5185 74.6547 23.5388 74.6547 23.559L74.6546 23.5588Z" fill="#033F33"/>
<path d="M42.1086 16.2048C42.1086 16.2352 42.1273 16.2554 42.1273 16.2655C42.118 17.1053 42.0617 17.9451 41.9397 18.7747C41.0112 25.3312 36.1433 30.8048 30.1124 32.0999C23.9409 33.4253 17.5254 30.4304 14.2427 24.6228C10.9318 18.7645 11.5134 11.1457 15.5277 5.86428C19.4857 0.653575 26.3702 -1.3701 32.2321 0.957181C38.1129 3.29445 42.071 9.38545 42.1272 16.1442C42.1272 16.1644 42.1085 16.1846 42.1085 16.2049L42.1086 16.2048Z" fill="#033F33"/>
</svg>
