<svg width="30" height="29" viewBox="0 0 30 29" fill="none" xmlns="http://www.w3.org/2000/svg">
<path d="M1.72466 20.2269L0 18.7141L1.51286 16.0968L3.70651 16.8381C4.19062 16.4297 4.73525 16.1119 5.34039 15.885L5.79425 13.6157L8.81997 13.6157L9.27383 15.8699C9.87897 16.0968 10.4236 16.4145 10.9077 16.823L13.1014 16.0817L14.6142 18.6989L12.8896 20.2118C13.0106 20.9682 13.0106 21.3616 12.8896 22.118L14.6142 23.6309L13.1014 26.2481L10.9077 25.5068C10.4236 25.9153 9.87897 26.233 9.27383 26.4599L8.81997 28.7443H5.79425L5.34039 26.4902C4.73525 26.2632 4.19062 25.9455 3.70651 25.5371L1.51286 26.2784L0 23.6611L1.72466 22.1483C1.60363 21.3767 1.60363 20.9834 1.72466 20.2269ZM7.30711 24.2057C8.97125 24.2057 10.3328 22.8442 10.3328 21.18C10.3328 19.5159 8.97125 18.1543 7.30711 18.1543C5.64297 18.1543 4.28139 19.5159 4.28139 21.18C4.28139 22.8442 5.64297 24.2057 7.30711 24.2057ZM5.79425 1.51286V10.59L8.81997 10.59V4.53858H11.8457V13.6157H14.8714L14.8714 3.02572L23.9486 3.02572L23.9486 24.2057H16.3843V27.2315H30V24.2057H26.9743L26.9743 0L11.8457 0V1.51286L5.79425 1.51286ZM16.3843 15.1286H19.41V12.1029H16.3843V15.1286Z" fill="#FCA82B"/>
</svg>
