<svg width="85" height="83" viewBox="0 0 85 83" fill="none" xmlns="http://www.w3.org/2000/svg">
<path d="M42.5011 11.5532C43.4801 11.5532 44.2718 10.7814 44.2718 9.8298V1.72343C44.2718 0.771826 43.48 0 42.5011 0C41.5222 0 40.7305 0.771856 40.7305 1.72343V9.8298C40.7305 10.7814 41.5222 11.5532 42.5011 11.5532Z" fill="#033F33"/>
<path d="M83.2301 39.6416H74.9015C73.9226 39.6416 73.1309 40.4135 73.1309 41.3651C73.1309 42.3167 73.9226 43.0886 74.9015 43.0886H83.2301C84.209 43.0886 85.0007 42.3167 85.0007 41.3651C85.0007 40.4129 84.2083 39.6416 83.2301 39.6416Z" fill="#033F33"/>
<path d="M42.4981 15.1396C27.6414 15.1396 15.5469 26.9118 15.5469 41.3721C15.5469 55.8323 27.6416 67.5875 42.4981 67.5875C57.3548 67.5875 69.4494 55.8322 69.4494 41.3721C69.4494 26.911 57.3547 15.1396 42.4981 15.1396ZM29.7858 34.1761C29.0941 33.5028 29.0941 32.4123 29.7858 31.739C31.8889 29.6921 35.3092 29.6921 37.4121 31.739C38.1038 32.4123 38.1038 33.5028 37.4121 34.1761C36.7203 34.8493 35.6 34.8493 34.9083 34.1761C34.2097 33.4962 32.9887 33.4962 32.2901 34.1761C31.5978 34.8493 30.4774 34.8493 29.7857 34.1761H29.7858ZM52.0128 48.6978C49.391 51.2496 45.9466 52.5252 42.5016 52.5252C39.0566 52.5252 35.6122 51.2496 32.9904 48.6978C32.2987 48.0251 32.2987 46.934 32.9904 46.2607C33.6821 45.5875 34.8025 45.5875 35.4942 46.2607C39.3574 50.0209 45.6453 50.0209 49.5085 46.2607C50.2002 45.5875 51.3206 45.5875 52.0123 46.2607C52.7047 46.934 52.7047 48.0257 52.0129 48.6978H52.0128ZM55.217 34.1761C54.5253 34.8493 53.4049 34.8493 52.7132 34.1761C52.0147 33.4962 50.7936 33.4962 50.0951 34.1761C49.4034 34.8493 48.283 34.8493 47.5913 34.1761C46.8995 33.5028 46.8995 32.4123 47.5913 31.739C49.6943 29.6921 53.1147 29.6921 55.2175 31.739C55.9086 32.4123 55.9086 33.5028 55.2169 34.1761H55.217Z" fill="#033F33"/>
<path d="M70.0476 12.1163L64.1575 17.8481C63.4657 18.5207 63.4657 19.6118 64.1575 20.2851C64.8492 20.9584 65.9696 20.9584 66.6613 20.2851L72.5515 14.5533C73.2432 13.8806 73.2432 12.7896 72.5515 12.1163C71.8597 11.443 70.7394 11.443 70.0476 12.1163Z" fill="#033F33"/>
<path d="M66.6632 62.4473C65.9715 61.7741 64.8511 61.7741 64.1594 62.4473C63.4677 63.1206 63.4677 64.2123 64.1594 64.8843L70.0496 70.6161C70.7413 71.2894 71.8617 71.2894 72.5534 70.6161C73.2451 69.9429 73.2451 68.8512 72.5534 68.1791L66.6632 62.4473Z" fill="#033F33"/>
<path d="M42.5011 71.1787C41.5222 71.1787 40.7305 71.9506 40.7305 72.9022V81.0086C40.7305 81.9602 41.5222 82.7314 42.5011 82.7314C43.48 82.7314 44.2718 81.9608 44.2718 81.0086V72.9022C44.2718 71.9505 43.48 71.1787 42.5011 71.1787Z" fill="#033F33"/>
<path d="M18.338 62.4472L12.4485 68.1796C11.7568 68.8523 11.7568 69.9434 12.4485 70.6166C13.1402 71.2899 14.2606 71.2899 14.9523 70.6166L20.8425 64.8849C21.5342 64.2122 21.5342 63.1211 20.8425 62.4479C20.1507 61.774 19.0298 61.774 18.338 62.4473V62.4472Z" fill="#033F33"/>
<path d="M10.0992 39.6416H1.77066C0.791746 39.6416 0 40.4135 0 41.3651C0 42.3167 0.791778 43.0886 1.77066 43.0886H10.0992C11.0781 43.0886 11.8699 42.3167 11.8699 41.3651C11.8699 40.4129 11.0781 39.6416 10.0992 39.6416Z" fill="#033F33"/>
<path d="M18.338 20.2859C19.0298 20.9592 20.1501 20.9592 20.8418 20.2859C21.5336 19.6126 21.5336 18.5209 20.8418 17.8489L14.9523 12.1163C14.2606 11.443 13.1402 11.443 12.4485 12.1163C11.7568 12.7896 11.7568 13.8813 12.4485 14.5534L18.338 20.2859Z" fill="#033F33"/>
</svg>
