<svg width="25" height="26" viewBox="0 0 25 26" fill="none" xmlns="http://www.w3.org/2000/svg">
<path d="M12.4995 5.74414C11.1958 5.74579 9.94601 6.26442 9.02416 7.18627C8.10231 8.10812 7.58369 9.35795 7.58203 10.6616H10.082C10.082 9.32789 11.167 8.24414 12.4995 8.24414C13.832 8.24414 14.917 9.32789 14.917 10.6616C14.917 11.4091 14.3158 11.9516 13.397 12.6941C13.0969 12.9293 12.8086 13.1792 12.5333 13.4429C11.2858 14.6891 11.2495 16.0129 11.2495 16.1604V16.9941H13.7495L13.7483 16.2029C13.7495 16.1829 13.7895 15.7204 14.2995 15.2116C14.487 15.0241 14.7233 14.8366 14.9683 14.6391C15.942 13.8504 17.4158 12.6591 17.4158 10.6616C17.4148 9.35796 16.8965 8.10794 15.9748 7.18598C15.0531 6.26402 13.8032 5.74546 12.4995 5.74414ZM11.2495 18.2441H13.7495V20.7441H11.2495V18.2441Z" fill="#FCA82B"/>
<path d="M12.5 0.744141C5.6075 0.744141 0 6.35164 0 13.2441C0 20.1366 5.6075 25.7441 12.5 25.7441C19.3925 25.7441 25 20.1366 25 13.2441C25 6.35164 19.3925 0.744141 12.5 0.744141ZM12.5 23.2441C6.98625 23.2441 2.5 18.7579 2.5 13.2441C2.5 7.73039 6.98625 3.24414 12.5 3.24414C18.0138 3.24414 22.5 7.73039 22.5 13.2441C22.5 18.7579 18.0138 23.2441 12.5 23.2441Z" fill="#FCA82B"/>
</svg>
