<svg width="126" height="126" viewBox="0 0 126 126" fill="none" xmlns="http://www.w3.org/2000/svg">
<path d="M63.7748 56.4783C63.6828 56.3606 63.5651 56.2655 63.4308 56.2C63.2965 56.1346 63.149 56.1006 62.9996 56.1006C62.8502 56.1006 62.7028 56.1346 62.5685 56.2C62.4342 56.2655 62.3165 56.3606 62.2245 56.4783L48.4432 73.914C48.3296 74.0591 48.2591 74.2332 48.2398 74.4165C48.2205 74.5997 48.2531 74.7847 48.334 74.9503C48.4148 75.1159 48.5407 75.2554 48.6971 75.3528C48.8535 75.4503 49.0341 75.5017 49.2184 75.5013H58.3116V105.328C58.3116 105.869 58.7545 106.312 59.2959 106.312H66.6788C67.2202 106.312 67.6631 105.869 67.6631 105.328V75.5136H76.7809C77.6053 75.5136 78.0606 74.5662 77.5561 73.9263L63.7748 56.4783Z" fill="#033F33"/>
<path d="M99.8402 45.1213C94.2047 30.2572 79.8451 19.6875 63.0246 19.6875C46.2041 19.6875 31.8445 30.2449 26.209 45.109C15.6639 47.8775 7.875 57.4875 7.875 68.9062C7.875 82.5029 18.8877 93.5156 32.4721 93.5156H37.4062C37.9477 93.5156 38.3906 93.0727 38.3906 92.5312V85.1484C38.3906 84.607 37.9477 84.1641 37.4062 84.1641H32.4721C28.3254 84.1641 24.4248 82.5152 21.5209 79.5252C18.6293 76.5475 17.0912 72.5361 17.2266 68.3771C17.3373 65.1287 18.4447 62.0771 20.4504 59.5055C22.5053 56.8846 25.3846 54.9773 28.5838 54.1283L33.2473 52.9102L34.9576 48.4066C36.0158 45.6012 37.4924 42.9803 39.3504 40.6055C41.1847 38.2517 43.3575 36.1825 45.798 34.4654C50.8553 30.9094 56.8107 29.0268 63.0246 29.0268C69.2385 29.0268 75.1939 30.9094 80.2512 34.4654C82.6998 36.1881 84.8654 38.2553 86.6988 40.6055C88.5568 42.9803 90.0334 45.6135 91.0916 48.4066L92.7896 52.8979L97.4408 54.1283C104.11 55.9248 108.773 61.991 108.773 68.9062C108.773 72.9791 107.186 76.8182 104.307 79.6975C102.895 81.1178 101.215 82.2439 99.3648 83.0106C97.5146 83.7772 95.5307 84.1693 93.5279 84.1641H88.5938C88.0523 84.1641 87.6094 84.607 87.6094 85.1484V92.5312C87.6094 93.0727 88.0523 93.5156 88.5938 93.5156H93.5279C107.112 93.5156 118.125 82.5029 118.125 68.9062C118.125 57.4998 110.361 47.9021 99.8402 45.1213Z" fill="#033F33"/>
</svg>
