<svg width="165" height="115" viewBox="0 0 165 115" fill="none" xmlns="http://www.w3.org/2000/svg">
<path d="M0 2C0 0.895433 0.89543 0 2 0H163C164.105 0 165 0.89543 165 2V113C165 114.105 164.105 115 163 115H2C0.895429 115 0 114.105 0 113V2Z" fill="#EEFCE8"/>
<path d="M2 1H163V-1H2V1ZM164 2V113H166V2H164ZM163 114H2V116H163V114ZM1 113V2H-1V113H1ZM2 114C1.44771 114 1 113.552 1 113H-1C-1 114.657 0.343143 116 2 116V114ZM164 113C164 113.552 163.552 114 163 114V116C164.657 116 166 114.657 166 113H164ZM163 1C163.552 1 164 1.44771 164 2H166C166 0.343147 164.657 -1 163 -1V1ZM2 -1C0.343144 -1 -1 0.34315 -1 2H1C1 1.44772 1.44772 1 2 1V-1Z" fill="#626262"/>
<path d="M86.846 39.3777L90.5975 43.5192H98.9V68.3676H66.1V43.5192H74.4025L78.154 39.3777H86.846ZM88.65 35.2363H76.35L72.5985 39.3777H66.1C63.845 39.3777 62 41.2414 62 43.5192V68.3676C62 70.6454 63.845 72.5091 66.1 72.5091H98.9C101.155 72.5091 103 70.6454 103 68.3676V43.5192C103 41.2414 101.155 39.3777 98.9 39.3777H92.4015L88.65 35.2363ZM82.5 49.7313C85.8825 49.7313 88.65 52.5267 88.65 55.9434C88.65 59.3601 85.8825 62.1555 82.5 62.1555C79.1175 62.1555 76.35 59.3601 76.35 55.9434C76.35 52.5267 79.1175 49.7313 82.5 49.7313ZM82.5 45.5899C76.842 45.5899 72.25 50.2282 72.25 55.9434C72.25 61.6586 76.842 66.2969 82.5 66.2969C88.158 66.2969 92.75 61.6586 92.75 55.9434C92.75 50.2282 88.158 45.5899 82.5 45.5899Z" fill="#033F33"/>
<path d="M59.2148 83.1504L54.7236 96H52.4912L48 83.1504H50.1621L52.8691 91.2012C52.9512 91.4355 53.0391 91.7197 53.1328 92.0537C53.2324 92.3877 53.3232 92.7246 53.4053 93.0645C53.4932 93.4043 53.5605 93.7061 53.6074 93.9697C53.6543 93.7061 53.7188 93.4043 53.8008 93.0645C53.8887 92.7246 53.9795 92.3877 54.0732 92.0537C54.167 91.7197 54.2549 91.4326 54.3369 91.1924L57.0527 83.1504H59.2148ZM64.5059 86.0859C65.7363 86.0859 66.665 86.3584 67.292 86.9033C67.9248 87.4482 68.2412 88.2979 68.2412 89.4521V96H66.7734L66.3779 94.6201H66.3076C66.0322 94.9717 65.748 95.2617 65.4551 95.4902C65.1621 95.7188 64.8223 95.8887 64.4355 96C64.0547 96.1172 63.5889 96.1758 63.0381 96.1758C62.458 96.1758 61.9395 96.0703 61.4824 95.8594C61.0254 95.6426 60.665 95.3145 60.4014 94.875C60.1377 94.4355 60.0059 93.8789 60.0059 93.2051C60.0059 92.2031 60.3779 91.4502 61.1221 90.9463C61.8721 90.4424 63.0029 90.1641 64.5146 90.1113L66.2021 90.0498V89.54C66.2021 88.8662 66.0439 88.3857 65.7275 88.0986C65.417 87.8115 64.9775 87.668 64.4092 87.668C63.9229 87.668 63.4512 87.7383 62.9941 87.8789C62.5371 88.0195 62.0918 88.1924 61.6582 88.3975L60.9902 86.9385C61.4648 86.6865 62.0039 86.4814 62.6074 86.3232C63.2168 86.165 63.8496 86.0859 64.5059 86.0859ZM66.1934 91.3506L64.9365 91.3945C63.9053 91.4297 63.1816 91.6055 62.7656 91.9219C62.3496 92.2383 62.1416 92.6719 62.1416 93.2227C62.1416 93.7031 62.2852 94.0547 62.5723 94.2773C62.8594 94.4941 63.2373 94.6025 63.7061 94.6025C64.4209 94.6025 65.0127 94.4004 65.4814 93.9961C65.9561 93.5859 66.1934 92.9854 66.1934 92.1943V91.3506ZM61.6846 83.6953C61.6846 83.3438 61.7812 83.0889 61.9746 82.9307C62.168 82.7666 62.4053 82.6846 62.6865 82.6846C62.9678 82.6846 63.208 82.7666 63.4072 82.9307C63.6123 83.0889 63.7148 83.3438 63.7148 83.6953C63.7148 84.0352 63.6123 84.29 63.4072 84.46C63.208 84.6299 62.9678 84.7148 62.6865 84.7148C62.4053 84.7148 62.168 84.6299 61.9746 84.46C61.7812 84.29 61.6846 84.0352 61.6846 83.6953ZM65.1387 83.6953C65.1387 83.3438 65.2354 83.0889 65.4287 82.9307C65.6279 82.7666 65.8682 82.6846 66.1494 82.6846C66.4307 82.6846 66.6709 82.7666 66.8701 82.9307C67.0752 83.0889 67.1777 83.3438 67.1777 83.6953C67.1777 84.0352 67.0752 84.29 66.8701 84.46C66.6709 84.6299 66.4307 84.7148 66.1494 84.7148C65.8682 84.7148 65.6279 84.6299 65.4287 84.46C65.2354 84.29 65.1387 84.0352 65.1387 83.6953ZM73.207 96H71.1328V82.3242H73.207V96ZM75.1846 100.324C74.8799 100.324 74.5898 100.301 74.3145 100.254C74.0391 100.213 73.8076 100.163 73.6201 100.104V98.4521C73.8193 98.5107 74.0127 98.5547 74.2002 98.584C74.3877 98.6133 74.6016 98.6279 74.8418 98.6279C75.2227 98.6279 75.5361 98.5225 75.7822 98.3115C76.0342 98.1006 76.1602 97.6992 76.1602 97.1074V86.2705H78.2256V97.292C78.2256 97.8838 78.1201 98.4082 77.9092 98.8652C77.7041 99.3223 77.376 99.6797 76.9248 99.9375C76.4795 100.195 75.8994 100.324 75.1846 100.324ZM76.0371 83.6777C76.0371 83.2617 76.1484 82.9688 76.3711 82.7988C76.5996 82.6289 76.8779 82.5439 77.2061 82.5439C77.5225 82.5439 77.7949 82.6289 78.0234 82.7988C78.2578 82.9688 78.375 83.2617 78.375 83.6777C78.375 84.0879 78.2578 84.3809 78.0234 84.5566C77.7949 84.7266 77.5225 84.8115 77.2061 84.8115C76.8779 84.8115 76.5996 84.7266 76.3711 84.5566C76.1484 84.3809 76.0371 84.0879 76.0371 83.6777ZM87.9287 82.3242V85.6201C87.9287 86.001 87.917 86.376 87.8936 86.7451C87.876 87.1084 87.8584 87.3926 87.8408 87.5977H87.9287C88.1924 87.1758 88.5586 86.8213 89.0273 86.5342C89.502 86.2412 90.1084 86.0947 90.8467 86.0947C92.001 86.0947 92.9297 86.5195 93.6328 87.3691C94.3359 88.2129 94.6875 89.4639 94.6875 91.1221C94.6875 92.2236 94.5264 93.1494 94.2041 93.8994C93.8818 94.6494 93.4277 95.2178 92.8418 95.6045C92.2617 95.9854 91.5791 96.1758 90.7939 96.1758C90.0557 96.1758 89.458 96.041 89.001 95.7715C88.5498 95.4961 88.1953 95.1768 87.9375 94.8135H87.7881L87.4102 96H85.8633V82.3242H87.9287ZM90.3018 87.7734C89.7158 87.7734 89.25 87.8906 88.9043 88.125C88.5645 88.3594 88.3184 88.7109 88.166 89.1797C88.0137 89.6426 87.9346 90.2314 87.9287 90.9463V91.1309C87.9287 92.2148 88.0986 93.0439 88.4385 93.6182C88.7842 94.1924 89.4111 94.4795 90.3193 94.4795C91.04 94.4795 91.5938 94.1895 91.9805 93.6094C92.3672 93.0234 92.5605 92.1855 92.5605 91.0957C92.5605 89.9941 92.3672 89.165 91.9805 88.6084C91.5996 88.0518 91.04 87.7734 90.3018 87.7734ZM99.1436 86.2705V96H97.0781V86.2705H99.1436ZM98.124 82.5439C98.4404 82.5439 98.7129 82.6289 98.9414 82.7988C99.1758 82.9688 99.293 83.2617 99.293 83.6777C99.293 84.0879 99.1758 84.3809 98.9414 84.5566C98.7129 84.7266 98.4404 84.8115 98.124 84.8115C97.7959 84.8115 97.5176 84.7266 97.2891 84.5566C97.0664 84.3809 96.9551 84.0879 96.9551 83.6777C96.9551 83.2617 97.0664 82.9688 97.2891 82.7988C97.5176 82.6289 97.7959 82.5439 98.124 82.5439ZM104.18 96H102.105V82.3242H104.18V96ZM110.402 96.1758C109.242 96.1758 108.311 95.7539 107.607 94.9102C106.91 94.0605 106.562 92.8096 106.562 91.1572C106.562 89.4873 106.916 88.2246 107.625 87.3691C108.34 86.5137 109.28 86.0859 110.446 86.0859C110.938 86.0859 111.369 86.1533 111.738 86.2881C112.107 86.417 112.424 86.5928 112.688 86.8154C112.957 87.0381 113.186 87.2871 113.373 87.5625H113.47C113.44 87.3809 113.405 87.1201 113.364 86.7803C113.329 86.4346 113.312 86.1152 113.312 85.8223V82.3242H115.386V96H113.769L113.399 94.6729H113.312C113.136 94.9541 112.913 95.209 112.644 95.4375C112.38 95.6602 112.063 95.8389 111.694 95.9736C111.331 96.1084 110.9 96.1758 110.402 96.1758ZM110.982 94.4971C111.867 94.4971 112.491 94.2422 112.854 93.7324C113.218 93.2227 113.405 92.458 113.417 91.4385V91.166C113.417 90.0762 113.241 89.2412 112.89 88.6611C112.538 88.0752 111.896 87.7822 110.965 87.7822C110.221 87.7822 109.652 88.084 109.26 88.6875C108.873 89.2852 108.68 90.1201 108.68 91.1924C108.68 92.2646 108.873 93.085 109.26 93.6533C109.652 94.2158 110.227 94.4971 110.982 94.4971Z" fill="#212121"/>
<path d="M48 97.0986H116.862V97.5381H48V97.0986Z" fill="#212121"/>
</svg>
