<svg width="241" height="168" viewBox="0 0 241 168" fill="none" xmlns="http://www.w3.org/2000/svg">
<path d="M0 2C0 0.895433 0.895431 0 2 0H239C240.105 0 241 0.895431 241 2V166C241 167.105 240.105 168 239 168H2C0.89543 168 0 167.105 0 166V2Z" fill="#EEFCE8"/>
<path d="M2 1H239V-1H2V1ZM240 2V166H242V2H240ZM239 167H2V169H239V167ZM1 166V2H-1V166H1ZM2 167C1.44772 167 1 166.552 1 166H-1C-1 167.657 0.343146 169 2 169V167ZM240 166C240 166.552 239.552 167 239 167V169C240.657 169 242 167.657 242 166H240ZM239 1C239.552 1 240 1.44772 240 2H242C242 0.343146 240.657 -1 239 -1V1ZM2 -1C0.343144 -1 -1 0.34315 -1 2H1C1 1.44772 1.44772 1 2 1V-1Z" fill="#626262"/>
<path d="M124.846 58.3777L128.597 62.5192H136.9V87.3676H104.1V62.5192H112.403L116.154 58.3777H124.846ZM126.65 54.2363H114.35L110.599 58.3777H104.1C101.845 58.3777 100 60.2414 100 62.5192V87.3676C100 89.6454 101.845 91.5091 104.1 91.5091H136.9C139.155 91.5091 141 89.6454 141 87.3676V62.5192C141 60.2414 139.155 58.3777 136.9 58.3777H130.401L126.65 54.2363ZM120.5 68.7313C123.882 68.7313 126.65 71.5267 126.65 74.9434C126.65 78.3601 123.882 81.1555 120.5 81.1555C117.118 81.1555 114.35 78.3601 114.35 74.9434C114.35 71.5267 117.118 68.7313 120.5 68.7313ZM120.5 64.5899C114.842 64.5899 110.25 69.2282 110.25 74.9434C110.25 80.6586 114.842 85.2969 120.5 85.2969C126.158 85.2969 130.75 80.6586 130.75 74.9434C130.75 69.2282 126.158 64.5899 120.5 64.5899Z" fill="#033F33"/>
<path d="M97.2148 102.15L92.7236 115H90.4912L86 102.15H88.1621L90.8691 110.201C90.9512 110.436 91.0391 110.72 91.1328 111.054C91.2324 111.388 91.3232 111.725 91.4053 112.064C91.4932 112.404 91.5605 112.706 91.6074 112.97C91.6543 112.706 91.7188 112.404 91.8008 112.064C91.8887 111.725 91.9795 111.388 92.0732 111.054C92.167 110.72 92.2549 110.433 92.3369 110.192L95.0527 102.15H97.2148ZM102.506 105.086C103.736 105.086 104.665 105.358 105.292 105.903C105.925 106.448 106.241 107.298 106.241 108.452V115H104.773L104.378 113.62H104.308C104.032 113.972 103.748 114.262 103.455 114.49C103.162 114.719 102.822 114.889 102.436 115C102.055 115.117 101.589 115.176 101.038 115.176C100.458 115.176 99.9395 115.07 99.4824 114.859C99.0254 114.643 98.665 114.314 98.4014 113.875C98.1377 113.436 98.0059 112.879 98.0059 112.205C98.0059 111.203 98.3779 110.45 99.1221 109.946C99.8721 109.442 101.003 109.164 102.515 109.111L104.202 109.05V108.54C104.202 107.866 104.044 107.386 103.728 107.099C103.417 106.812 102.978 106.668 102.409 106.668C101.923 106.668 101.451 106.738 100.994 106.879C100.537 107.02 100.092 107.192 99.6582 107.397L98.9902 105.938C99.4648 105.687 100.004 105.481 100.607 105.323C101.217 105.165 101.85 105.086 102.506 105.086ZM104.193 110.351L102.937 110.395C101.905 110.43 101.182 110.605 100.766 110.922C100.35 111.238 100.142 111.672 100.142 112.223C100.142 112.703 100.285 113.055 100.572 113.277C100.859 113.494 101.237 113.603 101.706 113.603C102.421 113.603 103.013 113.4 103.481 112.996C103.956 112.586 104.193 111.985 104.193 111.194V110.351ZM99.6846 102.695C99.6846 102.344 99.7812 102.089 99.9746 101.931C100.168 101.767 100.405 101.685 100.687 101.685C100.968 101.685 101.208 101.767 101.407 101.931C101.612 102.089 101.715 102.344 101.715 102.695C101.715 103.035 101.612 103.29 101.407 103.46C101.208 103.63 100.968 103.715 100.687 103.715C100.405 103.715 100.168 103.63 99.9746 103.46C99.7812 103.29 99.6846 103.035 99.6846 102.695ZM103.139 102.695C103.139 102.344 103.235 102.089 103.429 101.931C103.628 101.767 103.868 101.685 104.149 101.685C104.431 101.685 104.671 101.767 104.87 101.931C105.075 102.089 105.178 102.344 105.178 102.695C105.178 103.035 105.075 103.29 104.87 103.46C104.671 103.63 104.431 103.715 104.149 103.715C103.868 103.715 103.628 103.63 103.429 103.46C103.235 103.29 103.139 103.035 103.139 102.695ZM111.207 115H109.133V101.324H111.207V115ZM113.185 119.324C112.88 119.324 112.59 119.301 112.314 119.254C112.039 119.213 111.808 119.163 111.62 119.104V117.452C111.819 117.511 112.013 117.555 112.2 117.584C112.388 117.613 112.602 117.628 112.842 117.628C113.223 117.628 113.536 117.522 113.782 117.312C114.034 117.101 114.16 116.699 114.16 116.107V105.271H116.226V116.292C116.226 116.884 116.12 117.408 115.909 117.865C115.704 118.322 115.376 118.68 114.925 118.938C114.479 119.195 113.899 119.324 113.185 119.324ZM114.037 102.678C114.037 102.262 114.148 101.969 114.371 101.799C114.6 101.629 114.878 101.544 115.206 101.544C115.522 101.544 115.795 101.629 116.023 101.799C116.258 101.969 116.375 102.262 116.375 102.678C116.375 103.088 116.258 103.381 116.023 103.557C115.795 103.727 115.522 103.812 115.206 103.812C114.878 103.812 114.6 103.727 114.371 103.557C114.148 103.381 114.037 103.088 114.037 102.678ZM125.929 101.324V104.62C125.929 105.001 125.917 105.376 125.894 105.745C125.876 106.108 125.858 106.393 125.841 106.598H125.929C126.192 106.176 126.559 105.821 127.027 105.534C127.502 105.241 128.108 105.095 128.847 105.095C130.001 105.095 130.93 105.52 131.633 106.369C132.336 107.213 132.688 108.464 132.688 110.122C132.688 111.224 132.526 112.149 132.204 112.899C131.882 113.649 131.428 114.218 130.842 114.604C130.262 114.985 129.579 115.176 128.794 115.176C128.056 115.176 127.458 115.041 127.001 114.771C126.55 114.496 126.195 114.177 125.938 113.813H125.788L125.41 115H123.863V101.324H125.929ZM128.302 106.773C127.716 106.773 127.25 106.891 126.904 107.125C126.564 107.359 126.318 107.711 126.166 108.18C126.014 108.643 125.935 109.231 125.929 109.946V110.131C125.929 111.215 126.099 112.044 126.438 112.618C126.784 113.192 127.411 113.479 128.319 113.479C129.04 113.479 129.594 113.189 129.98 112.609C130.367 112.023 130.561 111.186 130.561 110.096C130.561 108.994 130.367 108.165 129.98 107.608C129.6 107.052 129.04 106.773 128.302 106.773ZM137.144 105.271V115H135.078V105.271H137.144ZM136.124 101.544C136.44 101.544 136.713 101.629 136.941 101.799C137.176 101.969 137.293 102.262 137.293 102.678C137.293 103.088 137.176 103.381 136.941 103.557C136.713 103.727 136.44 103.812 136.124 103.812C135.796 103.812 135.518 103.727 135.289 103.557C135.066 103.381 134.955 103.088 134.955 102.678C134.955 102.262 135.066 101.969 135.289 101.799C135.518 101.629 135.796 101.544 136.124 101.544ZM142.18 115H140.105V101.324H142.18V115ZM148.402 115.176C147.242 115.176 146.311 114.754 145.607 113.91C144.91 113.061 144.562 111.81 144.562 110.157C144.562 108.487 144.916 107.225 145.625 106.369C146.34 105.514 147.28 105.086 148.446 105.086C148.938 105.086 149.369 105.153 149.738 105.288C150.107 105.417 150.424 105.593 150.688 105.815C150.957 106.038 151.186 106.287 151.373 106.562H151.47C151.44 106.381 151.405 106.12 151.364 105.78C151.329 105.435 151.312 105.115 151.312 104.822V101.324H153.386V115H151.769L151.399 113.673H151.312C151.136 113.954 150.913 114.209 150.644 114.438C150.38 114.66 150.063 114.839 149.694 114.974C149.331 115.108 148.9 115.176 148.402 115.176ZM148.982 113.497C149.867 113.497 150.491 113.242 150.854 112.732C151.218 112.223 151.405 111.458 151.417 110.438V110.166C151.417 109.076 151.241 108.241 150.89 107.661C150.538 107.075 149.896 106.782 148.965 106.782C148.221 106.782 147.652 107.084 147.26 107.688C146.873 108.285 146.68 109.12 146.68 110.192C146.68 111.265 146.873 112.085 147.26 112.653C147.652 113.216 148.227 113.497 148.982 113.497Z" fill="#212121"/>
<path d="M86 116.099H154.862V116.538H86V116.099Z" fill="#212121"/>
</svg>
